<svg width="220" height="220" viewBox="0 0 220 220" fill="none" xmlns="http://www.w3.org/2000/svg">
<g filter="url(#filter0_d_2783_27675)">
<circle cx="110" cy="106" r="98" fill="#67A1A3"/>
<path d="M179.296 36.7036C161.569 18.9759 137.056 8 110 8C82.9436 8 58.4314 18.9759 40.7036 36.7036C22.9759 54.4314 12 78.9436 12 106C12 133.056 22.9759 157.569 40.7036 175.296C58.4314 193.024 82.9436 204 110 204C137.056 204 161.569 193.024 179.296 175.296C197.024 157.569 208 133.056 208 106C208 78.9436 197.032 54.4314 179.296 36.7036ZM162.653 174.114H162.645C162.645 174.122 162.645 174.13 162.645 174.138C162.645 176.169 161.006 177.808 158.976 177.808C156.953 177.808 155.306 176.169 155.306 174.138C155.306 174.114 155.314 174.09 155.314 174.057V131.947L139.462 156.068C137.758 158.596 134.879 160.268 131.601 160.268C128.258 160.268 125.322 158.531 123.634 155.913V155.921L109.666 136.229V174.326H109.649C109.649 174.35 109.658 174.367 109.658 174.391C109.658 176.422 108.018 178.061 105.988 178.061C103.966 178.061 102.319 176.422 102.319 174.391C102.319 174.367 102.327 174.342 102.327 174.318V131.05C98.9507 131.801 95.4525 132.2 91.8564 132.2H91.8319C78.4994 132.2 66.3901 126.778 57.6567 118.036C48.9151 109.303 43.5006 97.2014 43.4924 83.8689C43.4924 83.8607 43.4924 83.8607 43.4924 83.8526V83.8363C43.4924 70.4956 48.9151 58.3863 57.6567 49.6529C66.3819 40.9195 78.475 35.5049 91.7993 35.4886H91.8238C91.8319 35.4886 91.8319 35.4886 91.8401 35.4886H91.8645C105.523 35.4886 117.894 41.1804 126.676 50.2971L127.524 51.1777L127.516 51.1859C128.184 51.8545 128.6 52.776 128.6 53.7953C128.6 55.8258 126.953 57.473 124.923 57.473C123.797 57.473 122.794 56.9511 122.117 56.1519L121.384 55.3936C113.914 47.6469 103.46 42.8357 91.8401 42.8276C80.5054 42.8276 70.2716 47.4104 62.8429 54.8391C55.4142 62.2759 50.8314 72.5016 50.8314 83.8444C50.8314 95.1791 55.4142 105.413 62.8429 112.842C70.2797 120.27 80.5054 124.853 91.8482 124.853C95.0366 124.853 98.1353 124.478 101.112 123.785L85.6672 100.357C85.2105 99.7374 84.9251 98.979 84.9251 98.1554C84.9251 96.1087 86.5886 94.4533 88.6272 94.4533C90.0379 94.4533 91.2448 95.2525 91.8727 96.4104L108.638 120.914L121.049 101.98H112.83C110.775 101.964 109.103 100.292 109.103 98.2288C109.103 96.1658 110.767 94.4941 112.83 94.4778V94.4696H128.69C130.492 94.5186 131.944 95.9864 131.944 97.8048C131.944 98.4245 131.772 99.0035 131.487 99.5009L113.148 127.479L128.853 150.425C129.807 151.559 132.001 153.279 134.838 150.099L155.143 118.982C155.159 118.966 155.176 118.949 155.192 118.925C155.852 117.661 157.165 116.788 158.69 116.788C159.334 116.788 159.93 116.96 160.468 117.229C160.59 117.278 160.712 117.343 160.835 117.424C160.892 117.465 160.949 117.506 161.006 117.547C161.063 117.587 161.112 117.636 161.169 117.677C162.066 118.403 162.653 119.496 162.653 120.743C162.653 120.866 162.629 120.988 162.621 121.11C162.637 121.281 162.653 121.469 162.669 121.657V174.114H162.653ZM159.334 104.1C156.684 104.1 154.54 101.955 154.54 99.3052C154.54 96.655 156.684 94.5104 159.334 94.5104C161.976 94.5104 164.121 96.655 164.129 99.3052C164.121 101.955 161.985 104.1 159.334 104.1Z" fill="white"/>
</g>
<defs>
<filter id="filter0_d_2783_27675" x="0" y="0" width="220" height="220" filterUnits="userSpaceOnUse" color-interpolation-filters="sRGB">
<feFlood flood-opacity="0" result="BackgroundImageFix"/>
<feColorMatrix in="SourceAlpha" type="matrix" values="0 0 0 0 0 0 0 0 0 0 0 0 0 0 0 0 0 0 127 0" result="hardAlpha"/>
<feOffset dy="4"/>
<feGaussianBlur stdDeviation="6"/>
<feComposite in2="hardAlpha" operator="out"/>
<feColorMatrix type="matrix" values="0 0 0 0 0 0 0 0 0 0.309804 0 0 0 0 0.32549 0 0 0 0.25 0"/>
<feBlend mode="normal" in2="BackgroundImageFix" result="effect1_dropShadow_2783_27675"/>
<feBlend mode="normal" in="SourceGraphic" in2="effect1_dropShadow_2783_27675" result="shape"/>
</filter>
</defs>
</svg>
